<svg id="road-tiles-straight-grid-4" width="80" height="80" viewBox="0 0 80 80" xmlns="http://www.w3.org/2000/svg" xmlns:xlink="http://www.w3.org/1999/xlink">
  <desc>4種類の直線道路タイルを2x2グリッドに配置したもの</desc>

  <defs>
    <g id="grid-lines" stroke="#cccccc" stroke-width="0.5">
      <line x1="0" y1="0" x2="0" y2="40" /> <line x1="10" y1="0" x2="10" y2="40" /> <line x1="20" y1="0" x2="20" y2="40" /> <line x1="30" y1="0" x2="30" y2="40" /> <line x1="40" y1="0" x2="40" y2="40" />
      <line x1="0" y1="0" x2="40" y2="0" /> <line x1="0" y1="10" x2="40" y2="10" /> <line x1="0" y1="20" x2="40" y2="20" /> <line x1="0" y1="30" x2="40" y2="30" /> <line x1="0" y1="40" x2="40" y2="40" />
    </g>

    <g id="anchor-points" fill="#ff0000">
      <circle cx="10" cy="0" r="1" /> <circle cx="20" cy="0" r="1" /> <circle cx="30" cy="0" r="1" />
      <circle cx="40" cy="10" r="1" /> <circle cx="40" cy="20" r="1" /> <circle cx="40" cy="30" r="1" />
      <circle cx="10" cy="40" r="1" /> <circle cx="20" cy="40" r="1" /> <circle cx="30" cy="40" r="1" />
      <circle cx="0" cy="10" r="1" /> <circle cx="0" cy="20" r="1" /> <circle cx="0" cy="30" r="1" />
    </g>

    <g id="road-straight-h-1212" stroke="#000000" stroke-width="1" fill="none">
      <line x1="0" y1="20" x2="40" y2="20" /> <line x1="0" y1="30" x2="40" y2="30" />
    </g>
    <g id="road-straight-h-2323" stroke="#000000" stroke-width="1" fill="none">
      <line x1="0" y1="10" x2="40" y2="10" /> <line x1="0" y1="20" x2="40" y2="20" />
    </g>
    <g id="road-straight-v-1212" stroke="#000000" stroke-width="1" fill="none">
      <line x1="10" y1="0" x2="10" y2="40" /> <line x1="20" y1="0" x2="20" y2="40" />
    </g>
    <g id="road-straight-v-2323" stroke="#000000" stroke-width="1" fill="none">
      <line x1="20" y1="0" x2="20" y2="40" /> <line x1="30" y1="0" x2="30" y2="40" />
    </g>
  </defs>

  <g transform="translate(0, 0)">
    <use xlink:href="#grid-lines"/> <use xlink:href="#anchor-points"/> <use xlink:href="#road-straight-h-1212" />
    <title>直線 (水平 12-12)</title>
  </g>
  <g transform="translate(40, 0)">
    <use xlink:href="#grid-lines"/> <use xlink:href="#anchor-points"/> <use xlink:href="#road-straight-h-2323" />
     <title>直線 (水平 23-23)</title>
 </g>

  <g transform="translate(0, 40)">
    <use xlink:href="#grid-lines"/> <use xlink:href="#anchor-points"/> <use xlink:href="#road-straight-v-1212" />
     <title>直線 (垂直 12-12)</title>
 </g>
  <g transform="translate(40, 40)">
    <use xlink:href="#grid-lines"/> <use xlink:href="#anchor-points"/> <use xlink:href="#road-straight-v-2323" />
     <title>直線 (垂直 23-23)</title>
 </g>

</svg>
